<svg width="30" height="16" viewBox="0 0 30 16" fill="none" xmlns="http://www.w3.org/2000/svg">
<path d="M0.34371 7.17048C0.344063 7.17013 0.344357 7.16972 0.344767 7.16937L6.46805 1.07562C6.92678 0.619117 7.66875 0.620816 8.12537 1.07961C8.58193 1.53834 8.58018 2.28031 8.12144 2.73687L4.01027 6.82812H28.8281C29.4754 6.82812 30 7.35277 30 8C30 8.64722 29.4754 9.17187 28.8281 9.17187H4.01033L8.12139 13.2631C8.58012 13.7197 8.58187 14.4617 8.12531 14.9204C7.66869 15.3792 6.92666 15.3808 6.46799 14.9244L0.344707 8.83062C0.344355 8.83027 0.344063 8.82986 0.343651 8.82951C-0.115313 8.37142 -0.113848 7.62705 0.34371 7.17048Z" fill="#C7C7C7"/>
</svg>
