<svg width="48" height="38" viewBox="0 0 48 38" fill="none" xmlns="http://www.w3.org/2000/svg">
<path d="M35.8336 0.226226L4.28664 8.67922C1.56504 9.40946 -0.0498839 12.207 0.678202 14.9292L5.60991 33.3346C6.34046 36.0561 9.13789 37.6718 11.8599 36.9431L43.4069 28.4901C46.1286 27.7601 47.7434 24.9622 47.0154 22.2401L42.0836 3.83466C41.3531 1.11314 38.5557 -0.502167 35.8336 0.226226ZM4.81495 10.6509L36.362 2.19791C37.7829 1.82114 39.2713 2.50238 39.9147 3.8238L24.0225 19.2404L2.55117 13.8353C2.4476 12.3693 3.39602 11.0351 4.81495 10.6509ZM42.876 26.5088L11.329 34.9618C9.69646 35.394 8.02076 34.4268 7.57904 32.7968L3.09896 16.0768L24.0729 21.3609C24.2426 21.4026 24.4205 21.4025 24.5904 21.3599C24.7607 21.3163 24.9154 21.2273 25.0391 21.102L40.561 6.03891L45.0411 22.7588C45.4774 24.392 44.5084 26.0698 42.876 26.5088Z" fill="#0066F2"/>
</svg>
