<svg width="20" height="20" viewBox="0 0 20 20" fill="none" xmlns="http://www.w3.org/2000/svg">
<path fill-rule="evenodd" clip-rule="evenodd" d="M10 20C15.5228 20 20 15.5228 20 10C20 4.47715 15.5228 0 10 0C4.47715 0 0 4.47715 0 10C0 15.5228 4.47715 20 10 20ZM8.35472 13.9524H12.1754V13.5111C12.0706 13.499 11.9699 13.4788 11.8731 13.4506C11.7764 13.4224 11.6877 13.3902 11.6071 13.3539C11.4943 13.3055 11.4076 13.233 11.3472 13.1363C11.2867 13.0355 11.2565 12.9146 11.2565 12.7735V7.97349L11.1658 7.88281L8.20359 8.03999V8.48131C8.3245 8.4934 8.4575 8.52161 8.60259 8.56594C8.75171 8.61027 8.86254 8.65662 8.93508 8.70498C9.03181 8.76947 9.11241 8.85612 9.1769 8.96494C9.24138 9.06972 9.27362 9.19265 9.27362 9.3337V12.8521C9.27362 13.0012 9.24743 13.1221 9.19503 13.2148C9.14264 13.3035 9.05196 13.372 8.92299 13.4204C8.85045 13.4486 8.7638 13.4688 8.66304 13.4808C8.56228 13.4929 8.45951 13.503 8.35472 13.5111V13.9524ZM10.9361 6.49237C11.1739 6.27474 11.2928 6.01277 11.2928 5.70647C11.2928 5.40017 11.1759 5.13821 10.9422 4.92057C10.7084 4.70294 10.4283 4.59412 10.1018 4.59412C9.77539 4.59412 9.49327 4.70294 9.25549 4.92057C9.02173 5.13821 8.90485 5.40017 8.90485 5.70647C8.90485 6.01277 9.02173 6.27474 9.25549 6.49237C9.49327 6.70598 9.77539 6.81278 10.1018 6.81278C10.4243 6.81278 10.7023 6.70598 10.9361 6.49237Z" fill="#D94A56"/>
</svg>
