<svg width="178" height="33" viewBox="0 0 178 33" fill="none" xmlns="http://www.w3.org/2000/svg">
<path d="M42.4169 0.0841064H47.2741L56.6954 25.0867H51.4614L49.284 18.7729H40.0721L37.8947 25.0867H32.9956L42.4169 0.0841064ZM47.9441 14.8583L44.678 5.13513L41.3701 14.8583H47.9441Z" fill="#0B2540"/>
<path d="M58.4542 7.49225H62.6834L62.809 9.47057C63.0183 9.21802 63.2696 8.96547 63.5627 8.67082C63.8558 8.37618 64.1908 8.12363 64.6095 7.91317C65.0282 7.70271 65.4888 7.49225 66.0332 7.36598C66.5775 7.19761 67.1637 7.15552 67.8755 7.15552C70.1785 7.15552 71.9372 7.99735 73.1096 9.72312C73.9889 8.7971 74.9101 8.12363 75.8313 7.7448C76.7525 7.36598 77.8412 7.15552 79.0974 7.15552C81.3166 7.15552 82.9915 7.82899 84.1639 9.13383C85.3364 10.4387 85.9226 12.2065 85.9226 14.4374V25.1287H81.526V14.4374C81.526 13.3009 81.2329 12.4591 80.6885 11.8277C80.1442 11.1963 79.3486 10.9017 78.3855 10.9017C77.7993 10.9017 77.255 11.028 76.7525 11.2384C76.25 11.491 75.8313 11.8277 75.4545 12.2486C75.0776 12.6695 74.8264 13.1746 74.617 13.7218C74.4495 14.269 74.3239 14.9004 74.3239 15.5318V25.0445H69.9273V14.4374C69.9273 13.3009 69.6342 12.4591 69.0898 11.8277C68.5455 11.1963 67.7499 10.9017 66.7869 10.9017C66.2006 10.9017 65.6563 11.028 65.1538 11.2384C64.6514 11.491 64.2326 11.8277 63.8558 12.2486C63.4789 12.6695 63.2277 13.1746 63.0183 13.7218C62.8508 14.269 62.7252 14.9004 62.7252 15.5318V25.0445H58.3286V7.49225H58.4542Z" fill="#0B2540"/>
<path d="M88.686 7.49235H92.9152L93.0408 9.47067C93.2501 9.21812 93.5432 8.96557 93.8364 8.67092C94.1295 8.37628 94.5063 8.12373 94.9669 7.91327C95.3856 7.66072 95.8881 7.49235 96.4325 7.32398C96.9768 7.15562 97.6049 7.11353 98.3167 7.11353C100.494 7.11353 102.169 7.787 103.3 9.09184C104.43 10.3967 105.016 12.1645 105.016 14.3954V25.0867H100.62V14.4375C100.62 13.301 100.327 12.4592 99.6985 11.8278C99.0704 11.1964 98.3167 10.9018 97.3118 10.9018C96.7256 10.9018 96.1393 11.0281 95.6369 11.2385C95.1344 11.4911 94.6738 11.8278 94.297 12.2487C93.9201 12.6696 93.627 13.1747 93.4176 13.7219C93.2083 14.2691 93.0827 14.9005 93.0827 15.5319V25.0446H88.686V7.49235Z" fill="#0B2540"/>
<path d="M118.081 23.4031C117.62 23.9923 116.908 24.4974 115.903 24.9184C114.94 25.3814 113.851 25.5918 112.679 25.5918C111.967 25.5918 111.255 25.4656 110.544 25.2551C109.832 25.0446 109.204 24.7079 108.617 24.2449C108.031 23.7819 107.571 23.1926 107.194 22.477C106.817 21.7615 106.649 20.9196 106.649 19.9094C106.649 18.8992 106.817 18.0153 107.194 17.2156C107.571 16.4158 108.073 15.7844 108.743 15.2372C109.413 14.69 110.209 14.3112 111.172 14.0166C112.135 13.7219 113.14 13.5957 114.312 13.5957C114.647 13.5957 115.024 13.5957 115.485 13.5957C115.903 13.5957 116.322 13.6377 116.699 13.6377C117.159 13.6798 117.62 13.6798 118.081 13.7219V13.301C118.081 12.4171 117.746 11.7436 117.034 11.2385C116.322 10.7334 115.443 10.4809 114.312 10.4809C113.056 10.4809 112.093 10.6492 111.339 10.986C110.585 11.3227 109.915 11.6594 109.371 12.0383L107.361 9.04974C107.696 8.79719 108.115 8.54464 108.534 8.29209C108.994 8.03953 109.497 7.78698 110.083 7.57652C110.669 7.36606 111.381 7.1977 112.135 7.07142C112.93 6.94515 113.81 6.86096 114.856 6.86096C115.987 6.86096 116.992 7.02933 117.913 7.32397C118.834 7.61862 119.588 8.08163 120.258 8.62882C120.886 9.17601 121.389 9.84948 121.765 10.6492C122.1 11.449 122.268 12.2908 122.268 13.2168V25.0025H118.164L118.081 23.4031ZM118.081 17.1314C117.62 17.0893 117.201 17.0893 116.783 17.0472C116.448 17.0051 116.071 17.0051 115.694 17.0051C115.317 17.0051 114.982 17.0051 114.689 17.0051C113.265 17.0051 112.26 17.2997 111.716 17.8469C111.13 18.3941 110.879 19.0676 110.879 19.7832C110.879 20.5408 111.13 21.1301 111.674 21.551C112.218 21.9719 113.014 22.1824 114.061 22.1824C114.563 22.1824 115.066 22.0982 115.568 21.9298C116.071 21.7615 116.489 21.5089 116.866 21.2143C117.243 20.9196 117.536 20.5829 117.788 20.162C118.039 19.7832 118.122 19.3201 118.122 18.8992V17.1314H118.081Z" fill="#0B2540"/>
<path d="M126.204 0.0841064H134.159C135.918 0.0841064 137.3 0.336657 138.43 0.883851C139.519 1.43105 140.398 2.06242 141.068 2.86217C141.696 3.66191 142.157 4.50375 142.408 5.38768C142.66 6.27161 142.785 7.11344 142.785 7.8711C142.785 9.26013 142.534 10.4808 142.031 11.4489C141.529 12.4591 140.901 13.2589 140.105 13.8902C139.31 14.5216 138.43 14.9846 137.425 15.2793C136.421 15.5739 135.457 15.7423 134.494 15.7423H130.726V25.0446H126.204V0.0841064ZM134.118 11.7856C135.29 11.7856 136.253 11.4489 136.965 10.7333C137.677 10.0178 138.012 9.13385 138.012 7.99737C138.012 6.8188 137.635 5.85069 136.881 5.13513C136.127 4.41957 135.206 4.04074 134.076 4.04074H130.684V11.7856H134.118Z" fill="#0B2540"/>
<path d="M154.3 23.4031C153.84 23.9923 153.128 24.4974 152.123 24.9184C151.16 25.3814 150.071 25.5918 148.899 25.5918C148.187 25.5918 147.475 25.4656 146.763 25.2551C146.051 25.0446 145.423 24.7079 144.837 24.2449C144.251 23.7819 143.79 23.1926 143.413 22.477C143.037 21.7615 142.869 20.9196 142.869 19.9094C142.869 18.8992 143.037 18.0153 143.413 17.2156C143.79 16.4158 144.293 15.7844 144.963 15.2372C145.633 14.69 146.428 14.3112 147.391 14.0166C148.354 13.7219 149.359 13.5957 150.532 13.5957C150.867 13.5957 151.244 13.5957 151.704 13.5957C152.123 13.5957 152.542 13.6377 152.919 13.6377C153.379 13.6798 153.84 13.6798 154.3 13.7219V13.301C154.3 12.4171 153.965 11.7436 153.254 11.2385C152.542 10.7334 151.662 10.4809 150.532 10.4809C149.276 10.4809 148.313 10.6492 147.559 10.986C146.805 11.3227 146.135 11.6594 145.591 12.0383L143.581 9.04974C143.916 8.79719 144.335 8.54464 144.753 8.29209C145.214 8.03953 145.716 7.78698 146.303 7.57652C146.889 7.36606 147.601 7.1977 148.354 7.07142C149.15 6.94515 150.029 6.86096 151.076 6.86096C152.207 6.86096 153.212 7.02933 154.133 7.32397C155.054 7.61862 155.808 8.08163 156.478 8.62882C157.106 9.17601 157.608 9.84948 157.985 10.6492C158.32 11.449 158.488 12.2908 158.488 13.2168V25.0025H154.384L154.3 23.4031ZM154.3 17.1314C153.84 17.0893 153.421 17.0893 153.002 17.0472C152.667 17.0051 152.29 17.0051 151.914 17.0051C151.537 17.0051 151.202 17.0051 150.909 17.0051C149.485 17.0051 148.48 17.2997 147.936 17.8469C147.349 18.3941 147.098 19.0676 147.098 19.7832C147.098 20.5408 147.349 21.1301 147.894 21.551C148.438 21.9719 149.234 22.1824 150.281 22.1824C150.783 22.1824 151.286 22.0982 151.788 21.9298C152.29 21.7615 152.709 21.5089 153.086 21.2143C153.463 20.9196 153.756 20.5829 154.007 20.162C154.258 19.7832 154.342 19.3201 154.342 18.8992V17.1314H154.3Z" fill="#0B2540"/>
<path d="M161.419 28.5382C161.67 28.7487 161.921 28.9171 162.256 29.1275C162.549 29.2959 162.926 29.4222 163.387 29.4222C163.973 29.4222 164.475 29.1696 164.852 28.6645C165.229 28.1594 165.648 27.4018 166.066 26.3495L166.611 24.9183L158.739 7.49231H163.805L168.788 19.5306L173.185 7.49231H178L170.714 25.0446C170.379 25.9285 170.002 26.8125 169.667 27.7385C169.333 28.6645 168.872 29.5063 168.369 30.3061C167.867 31.1058 167.239 31.7372 166.485 32.2423C165.731 32.7474 164.81 33 163.638 33C162.633 33 161.837 32.8737 161.167 32.6632C160.497 32.4107 159.911 32.0739 159.451 31.653L161.419 28.5382Z" fill="#0B2540"/>
<path d="M25.291 11.4494H2.34486C1.04681 11.4494 0 10.3971 0 9.09224C0 7.78739 1.04681 6.7351 2.34486 6.7351H20.5175L18.1727 3.78867C17.3771 2.77846 17.5446 1.30525 18.5495 0.505505C19.5545 -0.29424 21.02 -0.125873 21.8156 0.884332L27.0915 7.66112C27.6358 8.37668 27.7615 9.34479 27.3427 10.1445C27.0078 10.9443 26.2122 11.4494 25.291 11.4494Z" fill="#006CFF"/>
<path d="M7.62076 25.1289C6.9508 25.1289 6.23896 24.8342 5.77837 24.245L0.50243 17.4261C-0.0419122 16.7105 -0.16753 15.7424 0.251195 14.9427C0.628048 14.1429 1.4655 13.6378 2.34482 13.6378H25.3328C26.6309 13.6378 27.6777 14.6901 27.6777 15.995C27.6777 17.2998 26.6309 18.3521 25.3328 18.3521H7.11829L9.46315 21.3406C10.2587 22.3508 10.0912 23.824 9.08629 24.6238C8.6257 24.9605 8.12323 25.1289 7.62076 25.1289Z" fill="#006CFF"/>
</svg>
